<?xml version="1.0" standalone="no"?><svg xmlns="http://www.w3.org/2000/svg" viewBox="0 0 1440 320"><path fill="#4338ca" fill-opacity="0.8" d="M0,32L8.9,42.7C17.8,53,36,75,53,101.3C71.1,128,89,160,107,165.3C124.4,171,142,149,160,128C177.8,107,196,85,213,90.7C231.1,96,249,128,267,165.3C284.4,203,302,245,320,272C337.8,299,356,309,373,266.7C391.1,224,409,128,427,128C444.4,128,462,224,480,266.7C497.8,309,516,299,533,282.7C551.1,267,569,245,587,224C604.4,203,622,181,640,192C657.8,203,676,245,693,256C711.1,267,729,245,747,234.7C764.4,224,782,224,800,192C817.8,160,836,96,853,96C871.1,96,889,160,907,181.3C924.4,203,942,181,960,149.3C977.8,117,996,75,1013,80C1031.1,85,1049,139,1067,165.3C1084.4,192,1102,192,1120,202.7C1137.8,213,1156,235,1173,218.7C1191.1,203,1209,149,1227,149.3C1244.4,149,1262,203,1280,197.3C1297.8,192,1316,128,1333,106.7C1351.1,85,1369,107,1387,122.7C1404.4,139,1422,149,1431,154.7L1440,160L1440,320L1431.1,320C1422.2,320,1404,320,1387,320C1368.9,320,1351,320,1333,320C1315.6,320,1298,320,1280,320C1262.2,320,1244,320,1227,320C1208.9,320,1191,320,1173,320C1155.6,320,1138,320,1120,320C1102.2,320,1084,320,1067,320C1048.9,320,1031,320,1013,320C995.6,320,978,320,960,320C942.2,320,924,320,907,320C888.9,320,871,320,853,320C835.6,320,818,320,800,320C782.2,320,764,320,747,320C728.9,320,711,320,693,320C675.6,320,658,320,640,320C622.2,320,604,320,587,320C568.9,320,551,320,533,320C515.6,320,498,320,480,320C462.2,320,444,320,427,320C408.9,320,391,320,373,320C355.6,320,338,320,320,320C302.2,320,284,320,267,320C248.9,320,231,320,213,320C195.6,320,178,320,160,320C142.2,320,124,320,107,320C88.9,320,71,320,53,320C35.6,320,18,320,9,320L0,320Z"></path></svg>